<svg width="1367" height="440" viewBox="0 0 1367 440" fill="none" xmlns="http://www.w3.org/2000/svg">
<path d="M15.0832 148.077V173.077H7.27073V148.077H15.0832ZM33.265 148.077V173.077H25.4525V148.077H33.265ZM44.3801 220.805H35.1472L61.8517 148.077H70.9426L97.6472 220.805H88.4142L66.6812 159.583H66.1131L44.3801 220.805ZM47.7892 192.396H85.0051V200.208H47.7892V192.396ZM131.418 220.805H108.975V148.077H132.413C139.468 148.077 145.505 149.533 150.524 152.445C155.543 155.334 159.39 159.488 162.065 164.91C164.74 170.308 166.078 176.771 166.078 184.299C166.078 191.875 164.728 198.397 162.029 203.866C159.33 209.311 155.4 213.501 150.239 216.437C145.078 219.349 138.805 220.805 131.418 220.805ZM117.782 212.992H130.85C136.864 212.992 141.847 211.832 145.801 209.512C149.754 207.192 152.702 203.889 154.643 199.604C156.584 195.319 157.555 190.218 157.555 184.299C157.555 178.428 156.596 173.373 154.678 169.136C152.761 164.874 149.896 161.607 146.085 159.335C142.273 157.038 137.526 155.89 131.845 155.89H117.782V212.992ZM242.214 184.441C242.214 192.112 240.829 198.74 238.059 204.327C235.289 209.915 231.489 214.223 226.66 217.254C221.83 220.284 216.314 221.799 210.112 221.799C203.909 221.799 198.393 220.284 193.563 217.254C188.734 214.223 184.934 209.915 182.164 204.327C179.394 198.74 178.009 192.112 178.009 184.441C178.009 176.771 179.394 170.142 182.164 164.555C184.934 158.968 188.734 154.659 193.563 151.629C198.393 148.598 203.909 147.083 210.112 147.083C216.314 147.083 221.83 148.598 226.66 151.629C231.489 154.659 235.289 158.968 238.059 164.555C240.829 170.142 242.214 176.771 242.214 184.441ZM233.691 184.441C233.691 178.144 232.638 172.829 230.531 168.496C228.447 164.164 225.618 160.885 222.043 158.66C218.492 156.434 214.515 155.322 210.112 155.322C205.708 155.322 201.719 156.434 198.144 158.66C194.593 160.885 191.764 164.164 189.657 168.496C187.574 172.829 186.532 178.144 186.532 184.441C186.532 190.738 187.574 196.053 189.657 200.386C191.764 204.718 194.593 207.997 198.144 210.222C201.719 212.448 205.708 213.56 210.112 213.56C214.515 213.56 218.492 212.448 222.043 210.222C225.618 207.997 228.447 204.718 230.531 200.386C232.638 196.053 233.691 190.738 233.691 184.441ZM257.022 220.805V148.077H282.448C287.515 148.077 291.693 148.953 294.984 150.705C298.275 152.433 300.725 154.765 302.335 157.701C303.945 160.613 304.749 163.844 304.749 167.396C304.749 170.521 304.193 173.101 303.08 175.137C301.991 177.173 300.547 178.783 298.748 179.967C296.972 181.15 295.043 182.026 292.96 182.594V183.305C295.185 183.447 297.422 184.228 299.671 185.648C301.92 187.069 303.802 189.105 305.318 191.756C306.833 194.408 307.59 197.651 307.59 201.487C307.59 205.132 306.762 208.411 305.105 211.323C303.447 214.235 300.831 216.543 297.257 218.248C293.682 219.952 289.03 220.805 283.301 220.805H257.022ZM265.829 212.992H283.301C289.053 212.992 293.137 211.879 295.552 209.654C297.99 207.405 299.21 204.683 299.21 201.487C299.21 199.024 298.582 196.752 297.328 194.668C296.073 192.561 294.285 190.88 291.965 189.626C289.645 188.347 286.899 187.708 283.727 187.708H265.829V212.992ZM265.829 180.038H282.164C284.816 180.038 287.207 179.517 289.337 178.475C291.492 177.433 293.196 175.966 294.451 174.072C295.73 172.178 296.369 169.952 296.369 167.396C296.369 164.2 295.256 161.489 293.031 159.263C290.805 157.014 287.278 155.89 282.448 155.89H265.829V180.038ZM322.061 220.805V148.077H365.953V155.89H330.868V180.464H363.681V188.276H330.868V212.992H366.521V220.805H322.061ZM440.35 170.805H431.543C431.022 168.272 430.11 166.046 428.808 164.129C427.53 162.211 425.967 160.601 424.121 159.299C422.298 157.973 420.274 156.979 418.048 156.316C415.823 155.653 413.503 155.322 411.088 155.322C406.685 155.322 402.696 156.434 399.121 158.66C395.57 160.885 392.741 164.164 390.634 168.496C388.55 172.829 387.509 178.144 387.509 184.441C387.509 190.738 388.55 196.053 390.634 200.386C392.741 204.718 395.57 207.997 399.121 210.222C402.696 212.448 406.685 213.56 411.088 213.56C413.503 213.56 415.823 213.229 418.048 212.566C420.274 211.903 422.298 210.921 424.121 209.619C425.967 208.293 427.53 206.671 428.808 204.754C430.11 202.812 431.022 200.587 431.543 198.077H440.35C439.687 201.794 438.479 205.121 436.727 208.056C434.976 210.992 432.797 213.489 430.193 215.549C427.589 217.585 424.665 219.136 421.422 220.201C418.202 221.266 414.758 221.799 411.088 221.799C404.886 221.799 399.369 220.284 394.54 217.254C389.71 214.223 385.911 209.915 383.141 204.327C380.371 198.74 378.986 192.112 378.986 184.441C378.986 176.771 380.371 170.142 383.141 164.555C385.911 158.968 389.71 154.659 394.54 151.629C399.369 148.598 404.886 147.083 411.088 147.083C414.758 147.083 418.202 147.616 421.422 148.681C424.665 149.746 427.589 151.309 430.193 153.369C432.797 155.405 434.976 157.89 436.727 160.826C438.479 163.738 439.687 167.064 440.35 170.805ZM515.944 184.441C515.944 192.112 514.559 198.74 511.79 204.327C509.02 209.915 505.22 214.223 500.39 217.254C495.561 220.284 490.045 221.799 483.842 221.799C477.639 221.799 472.123 220.284 467.294 217.254C462.464 214.223 458.665 209.915 455.895 204.327C453.125 198.74 451.74 192.112 451.74 184.441C451.74 176.771 453.125 170.142 455.895 164.555C458.665 158.968 462.464 154.659 467.294 151.629C472.123 148.598 477.639 147.083 483.842 147.083C490.045 147.083 495.561 148.598 500.39 151.629C505.22 154.659 509.02 158.968 511.79 164.555C514.559 170.142 515.944 176.771 515.944 184.441ZM507.422 184.441C507.422 178.144 506.368 172.829 504.261 168.496C502.178 164.164 499.349 160.885 495.774 158.66C492.223 156.434 488.246 155.322 483.842 155.322C479.439 155.322 475.45 156.434 471.875 158.66C468.324 160.885 465.495 164.164 463.388 168.496C461.304 172.829 460.263 178.144 460.263 184.441C460.263 190.738 461.304 196.053 463.388 200.386C465.495 204.718 468.324 207.997 471.875 210.222C475.45 212.448 479.439 213.56 483.842 213.56C488.246 213.56 492.223 212.448 495.774 210.222C499.349 207.997 502.178 204.718 504.261 200.386C506.368 196.053 507.422 190.738 507.422 184.441ZM553.196 220.805H530.753V148.077H554.19C561.245 148.077 567.282 149.533 572.301 152.445C577.32 155.334 581.167 159.488 583.842 164.91C586.517 170.308 587.855 176.771 587.855 184.299C587.855 191.875 586.505 198.397 583.807 203.866C581.108 209.311 577.178 213.501 572.017 216.437C566.856 219.349 560.582 220.805 553.196 220.805ZM539.559 212.992H552.628C558.641 212.992 563.624 211.832 567.578 209.512C571.532 207.192 574.479 203.889 576.42 199.604C578.362 195.319 579.332 190.218 579.332 184.299C579.332 178.428 578.373 173.373 576.456 169.136C574.538 164.874 571.674 161.607 567.862 159.335C564.05 157.038 559.304 155.89 553.622 155.89H539.559V212.992ZM602.628 220.805V148.077H646.52V155.89H611.434V180.464H644.247V188.276H611.434V212.992H647.088V220.805H602.628ZM662.393 220.805V148.077H687.819C692.886 148.077 697.064 148.953 700.355 150.705C703.646 152.433 706.096 154.765 707.706 157.701C709.316 160.613 710.121 163.844 710.121 167.396C710.121 170.521 709.564 173.101 708.451 175.137C707.362 177.173 705.918 178.783 704.119 179.967C702.344 181.15 700.414 182.026 698.331 182.594V183.305C700.556 183.447 702.793 184.228 705.042 185.648C707.291 187.069 709.174 189.105 710.689 191.756C712.204 194.408 712.961 197.651 712.961 201.487C712.961 205.132 712.133 208.411 710.476 211.323C708.818 214.235 706.202 216.543 702.628 218.248C699.053 219.952 694.401 220.805 688.672 220.805H662.393ZM671.2 212.992H688.672C694.424 212.992 698.508 211.879 700.923 209.654C703.362 207.405 704.581 204.683 704.581 201.487C704.581 199.024 703.953 196.752 702.699 194.668C701.444 192.561 699.657 190.88 697.336 189.626C695.016 188.347 692.27 187.708 689.098 187.708H671.2V212.992ZM671.2 180.038H687.535C690.187 180.038 692.578 179.517 694.709 178.475C696.863 177.433 698.567 175.966 699.822 174.072C701.101 172.178 701.74 169.952 701.74 167.396C701.74 164.2 700.627 161.489 698.402 159.263C696.176 157.014 692.649 155.89 687.819 155.89H671.2V180.038ZM730.415 220.805H721.182L747.887 148.077H756.978L783.682 220.805H774.449L752.716 159.583H752.148L730.415 220.805ZM733.824 192.396H771.04V200.208H733.824V192.396ZM852.681 148.077V220.805H844.158L804.527 163.702H803.817V220.805H795.01V148.077H803.533L843.306 205.322H844.016V148.077H852.681ZM928.826 170.805H920.019C919.498 168.272 918.587 166.046 917.285 164.129C916.007 162.211 914.444 160.601 912.597 159.299C910.775 157.973 908.75 156.979 906.525 156.316C904.3 155.653 901.98 155.322 899.565 155.322C895.161 155.322 891.172 156.434 887.597 158.66C884.046 160.885 881.217 164.164 879.11 168.496C877.027 172.829 875.985 178.144 875.985 184.441C875.985 190.738 877.027 196.053 879.11 200.386C881.217 204.718 884.046 207.997 887.597 210.222C891.172 212.448 895.161 213.56 899.565 213.56C901.98 213.56 904.3 213.229 906.525 212.566C908.75 211.903 910.775 210.921 912.597 209.619C914.444 208.293 916.007 206.671 917.285 204.754C918.587 202.812 919.498 200.587 920.019 198.077H928.826C928.163 201.794 926.956 205.121 925.204 208.056C923.452 210.992 921.274 213.489 918.67 215.549C916.066 217.585 913.142 219.136 909.899 220.201C906.679 221.266 903.234 221.799 899.565 221.799C893.362 221.799 887.846 220.284 883.016 217.254C878.187 214.223 874.387 209.915 871.617 204.327C868.847 198.74 867.462 192.112 867.462 184.441C867.462 176.771 868.847 170.142 871.617 164.555C874.387 158.968 878.187 154.659 883.016 151.629C887.846 148.598 893.362 147.083 899.565 147.083C903.234 147.083 906.679 147.616 909.899 148.681C913.142 149.746 916.066 151.309 918.67 153.369C921.274 155.405 923.452 157.89 925.204 160.826C926.956 163.738 928.163 167.064 928.826 170.805ZM949.165 148.077V173.077H941.353V148.077H949.165ZM967.347 148.077V173.077H959.535V148.077H967.347ZM1102 148.077V173.077H1094.18V148.077H1102ZM1120.18 148.077V173.077H1112.37V148.077H1120.18ZM1131.29 220.805H1122.06L1148.77 148.077H1157.86L1184.56 220.805H1175.33L1153.6 159.583H1153.03L1131.29 220.805ZM1134.7 192.396H1171.92V200.208H1134.7V192.396ZM1195.89 220.805V148.077H1221.32C1226.38 148.077 1230.56 148.953 1233.85 150.705C1237.14 152.433 1239.59 154.765 1241.2 157.701C1242.81 160.613 1243.62 163.844 1243.62 167.396C1243.62 170.521 1243.06 173.101 1241.95 175.137C1240.86 177.173 1239.41 178.783 1237.62 179.967C1235.84 181.15 1233.91 182.026 1231.83 182.594V183.305C1234.05 183.447 1236.29 184.228 1238.54 185.648C1240.79 187.069 1242.67 189.105 1244.18 191.756C1245.7 194.408 1246.46 197.651 1246.46 201.487C1246.46 205.132 1245.63 208.411 1243.97 211.323C1242.31 214.235 1239.7 216.543 1236.12 218.248C1232.55 219.952 1227.9 220.805 1222.17 220.805H1195.89ZM1204.7 212.992H1222.17C1227.92 212.992 1232 211.879 1234.42 209.654C1236.86 207.405 1238.08 204.683 1238.08 201.487C1238.08 199.024 1237.45 196.752 1236.19 194.668C1234.94 192.561 1233.15 190.88 1230.83 189.626C1228.51 188.347 1225.77 187.708 1222.59 187.708H1204.7V212.992ZM1204.7 180.038H1221.03C1223.68 180.038 1226.07 179.517 1228.2 178.475C1230.36 177.433 1232.06 175.966 1233.32 174.072C1234.6 172.178 1235.24 169.952 1235.24 167.396C1235.24 164.2 1234.12 161.489 1231.9 159.263C1229.67 157.014 1226.15 155.89 1221.32 155.89H1204.7V180.038ZM1319.45 170.805H1310.64C1310.12 168.272 1309.21 166.046 1307.91 164.129C1306.63 162.211 1305.07 160.601 1303.22 159.299C1301.4 157.973 1299.38 156.979 1297.15 156.316C1294.92 155.653 1292.6 155.322 1290.19 155.322C1285.79 155.322 1281.8 156.434 1278.22 158.66C1274.67 160.885 1271.84 164.164 1269.74 168.496C1267.65 172.829 1266.61 178.144 1266.61 184.441C1266.61 190.738 1267.65 196.053 1269.74 200.386C1271.84 204.718 1274.67 207.997 1278.22 210.222C1281.8 212.448 1285.79 213.56 1290.19 213.56C1292.6 213.56 1294.92 213.229 1297.15 212.566C1299.38 211.903 1301.4 210.921 1303.22 209.619C1305.07 208.293 1306.63 206.671 1307.91 204.754C1309.21 202.812 1310.12 200.587 1310.64 198.077H1319.45C1318.79 201.794 1317.58 205.121 1315.83 208.056C1314.08 210.992 1311.9 213.489 1309.29 215.549C1306.69 217.585 1303.77 219.136 1300.52 220.201C1297.3 221.266 1293.86 221.799 1290.19 221.799C1283.99 221.799 1278.47 220.284 1273.64 217.254C1268.81 214.223 1265.01 209.915 1262.24 204.327C1259.47 198.74 1258.09 192.112 1258.09 184.441C1258.09 176.771 1259.47 170.142 1262.24 164.555C1265.01 158.968 1268.81 154.659 1273.64 151.629C1278.47 148.598 1283.99 147.083 1290.19 147.083C1293.86 147.083 1297.3 147.616 1300.52 148.681C1303.77 149.746 1306.69 151.309 1309.29 153.369C1311.9 155.405 1314.08 157.89 1315.83 160.826C1317.58 163.738 1318.79 167.064 1319.45 170.805ZM1339.79 148.077V173.077H1331.98V148.077H1339.79ZM1357.97 148.077V173.077H1350.16V148.077H1357.97Z" fill="#006CA9"/>
<path d="M82.1756 123.18C81.723 124.188 82.1729 125.372 83.1805 125.824L99.6 133.2C100.608 133.653 101.791 133.203 102.244 132.195C102.697 131.188 102.247 130.004 101.239 129.551L86.6439 122.995L93.2 108.4C93.6526 107.392 93.2027 106.209 92.1951 105.756C91.1875 105.303 90.0038 105.753 89.5512 106.761L82.1756 123.18ZM1153.71 122.13C944.867 42.7575 781.726 3.00072 618.5 3C455.274 2.99929 292.133 42.7546 83.2894 122.13L84.7106 125.87C293.338 46.5758 455.961 6.99929 618.5 7C781.039 7.00072 943.662 46.5787 1152.29 125.87L1153.71 122.13Z" fill="#82D1F5"/>
<path d="M764.131 123.289C763.738 124.321 764.256 125.476 765.289 125.869L782.111 132.272C783.144 132.665 784.299 132.147 784.692 131.114C785.085 130.082 784.566 128.927 783.534 128.534L768.581 122.842L774.272 107.889C774.665 106.856 774.147 105.701 773.114 105.308C772.082 104.915 770.927 105.434 770.534 106.466L764.131 123.289ZM1153.77 122.153C1076.91 90.2601 1017.04 73.4778 957.675 73.1041C898.296 72.7303 839.63 88.7748 765.181 122.175L766.819 125.825C840.997 92.5453 899.068 76.7352 957.65 77.104C1016.25 77.473 1075.56 94.0306 1152.23 125.847L1153.77 122.153Z" fill="#82D1F5"/>
<path d="M293.169 123.195C292.725 124.206 293.184 125.386 294.195 125.831L310.672 133.077C311.683 133.521 312.863 133.062 313.308 132.051C313.753 131.04 313.293 129.86 312.282 129.415L297.636 122.974L304.077 108.328C304.521 107.317 304.062 106.137 303.051 105.692C302.04 105.247 300.86 105.707 300.415 106.718L293.169 123.195ZM1212.91 122.22C1050.41 38.9336 917.963 1.00779 777.428 2.91418C636.95 4.81979 488.584 46.5251 294.275 122.136L295.725 125.864C489.923 50.296 637.743 8.8094 777.482 6.91382C917.163 5.01902 1048.96 42.6826 1211.09 125.78L1212.91 122.22Z" fill="black"/>
<path d="M695.055 123.534C694.798 124.608 695.46 125.688 696.534 125.945L714.039 130.139C715.113 130.396 716.192 129.734 716.45 128.66C716.707 127.585 716.045 126.506 714.971 126.249L699.411 122.521L703.139 106.961C703.396 105.887 702.734 104.808 701.66 104.55C700.585 104.293 699.506 104.955 699.249 106.029L695.055 123.534ZM1212.9 122.216C1105.09 67.5535 1022.52 38.837 943.498 38.2184C864.42 37.5995 789.165 65.1142 695.954 122.295L698.046 125.705C790.941 68.7176 865.443 41.6076 943.467 42.2183C1021.54 42.8295 1103.43 71.197 1211.1 125.784L1212.9 122.216Z" fill="black"/>
<path d="M425.209 123.109C424.717 124.098 425.12 125.299 426.109 125.791L442.225 133.808C443.214 134.3 444.414 133.898 444.906 132.909C445.398 131.92 444.995 130.719 444.007 130.227L429.682 123.1L436.808 108.775C437.3 107.786 436.898 106.586 435.909 106.094C434.92 105.602 433.719 106.005 433.227 106.993L425.209 123.109ZM1290.28 122.467C1186.38 35.4535 1082.69 -2.40147 948.722 0.449784C814.915 3.29751 650.929 46.7528 426.364 122.104L427.636 125.896C652.212 50.5418 815.675 7.28224 948.807 4.44888C1081.77 1.61904 1184.52 39.1168 1287.72 125.533L1290.28 122.467Z" fill="#737370"/>
<path d="M907.028 123.669C906.845 124.758 907.58 125.79 908.669 125.972L926.421 128.951C927.51 129.134 928.541 128.399 928.724 127.31C928.907 126.22 928.172 125.189 927.083 125.006L911.303 122.359L913.951 106.579C914.134 105.49 913.399 104.459 912.31 104.276C911.22 104.093 910.189 104.828 910.006 105.917L907.028 123.669ZM1290.24 122.435C1220.77 67.1821 1164.91 38.6204 1106.35 38.3069C1047.83 37.9935 987.082 65.9018 907.839 122.371L910.161 125.629C989.251 69.268 1049.12 42.0005 1106.33 42.3068C1163.5 42.6129 1218.47 70.4662 1287.76 125.565L1290.24 122.435Z" fill="#737370"/>
<line x1="27" y1="244" x2="449" y2="244" stroke="#737370" stroke-width="2"/>
<line x1="26" y1="245" x2="26" y2="221" stroke="#737370" stroke-width="2"/>
<line x1="448" y1="245" x2="448" y2="221" stroke="#737370" stroke-width="2"/>
<line x1="250" y1="283" x2="792" y2="283" stroke="#737370" stroke-width="2"/>
<line x1="249" y1="284" x2="249" y2="260" stroke="#737370" stroke-width="2"/>
<line x1="791" y1="284" x2="791" y2="260" stroke="#737370" stroke-width="2"/>
<line x1="385" y1="322" x2="792" y2="322" stroke="#737370" stroke-width="2"/>
<line x1="384" y1="323" x2="384" y2="299" stroke="#737370" stroke-width="2"/>
<line x1="791" y1="323" x2="791" y2="299" stroke="#737370" stroke-width="2"/>
<line x1="654" y1="361" x2="930" y2="361" stroke="#737370" stroke-width="2"/>
<line x1="653" y1="362" x2="653" y2="338" stroke="#737370" stroke-width="2"/>
<line x1="929" y1="362" x2="929" y2="338" stroke="#737370" stroke-width="2"/>
<path d="M46.0057 299.597C44.2159 299.568 42.4261 299.227 40.6364 298.574C38.8466 297.92 37.2131 296.82 35.7358 295.271C34.2585 293.709 33.0724 291.599 32.1776 288.943C31.2827 286.273 30.8352 282.92 30.8352 278.886C30.8352 275.023 31.1974 271.599 31.9219 268.616C32.6463 265.619 33.6974 263.098 35.0753 261.053C36.4531 258.993 38.1151 257.43 40.0611 256.365C42.0213 255.3 44.2301 254.767 46.6875 254.767C49.1307 254.767 51.304 255.257 53.2074 256.237C55.125 257.203 56.6875 258.553 57.8949 260.286C59.1023 262.018 59.8835 264.014 60.2386 266.273H55.0398C54.5568 264.312 53.6193 262.686 52.2273 261.393C50.8352 260.101 48.9886 259.455 46.6875 259.455C43.3068 259.455 40.6435 260.925 38.6974 263.865C36.7656 266.805 35.7926 270.932 35.7784 276.244H36.1193C36.9148 275.037 37.8594 274.007 38.9531 273.155C40.0611 272.288 41.2827 271.621 42.6179 271.152C43.9531 270.683 45.3665 270.449 46.858 270.449C49.358 270.449 51.6449 271.074 53.7188 272.324C55.7926 273.56 57.4545 275.271 58.7045 277.459C59.9545 279.632 60.5795 282.125 60.5795 284.938C60.5795 287.636 59.9759 290.108 58.7685 292.352C57.5611 294.582 55.8636 296.358 53.6761 297.679C51.5028 298.986 48.946 299.625 46.0057 299.597ZM46.0057 294.909C47.7955 294.909 49.4006 294.462 50.821 293.567C52.2557 292.672 53.3849 291.472 54.2088 289.966C55.0469 288.46 55.4659 286.784 55.4659 284.938C55.4659 283.134 55.0611 281.493 54.2514 280.016C53.456 278.524 52.3551 277.338 50.9489 276.457C49.5568 275.577 47.9659 275.136 46.1761 275.136C44.8267 275.136 43.5696 275.406 42.4048 275.946C41.2401 276.472 40.2173 277.196 39.3366 278.119C38.4702 279.043 37.7884 280.101 37.2912 281.294C36.794 282.473 36.5455 283.716 36.5455 285.023C36.5455 286.756 36.9503 288.375 37.7599 289.881C38.5838 291.386 39.706 292.601 41.1264 293.524C42.5611 294.447 44.1875 294.909 46.0057 294.909Z" fill="#737370"/>
<path d="M664.494 411.051V406.705L683.67 376.364H686.824V383.097H684.693L670.205 406.023V406.364H696.028V411.051H664.494ZM685.034 420V409.73V407.706V376.364H690.062V420H685.034Z" fill="#737370"/>
<path d="M760.392 398.182C760.392 392.812 761.088 387.876 762.48 383.374C763.886 378.857 765.889 374.702 768.489 370.909H772.92C771.898 372.315 770.939 374.048 770.044 376.108C769.163 378.153 768.389 380.405 767.722 382.862C767.054 385.305 766.528 387.834 766.145 390.447C765.776 393.061 765.591 395.639 765.591 398.182C765.591 401.562 765.918 404.993 766.571 408.473C767.224 411.953 768.105 415.185 769.213 418.168C770.321 421.151 771.557 423.58 772.92 425.455H768.489C765.889 421.662 763.886 417.514 762.48 413.011C761.088 408.494 760.392 403.551 760.392 398.182ZM794.147 375.767C795.937 375.781 797.727 376.122 799.517 376.79C801.306 377.457 802.94 378.565 804.417 380.114C805.895 381.648 807.081 383.743 807.975 386.399C808.87 389.055 809.318 392.386 809.318 396.392C809.318 400.27 808.949 403.714 808.21 406.726C807.485 409.723 806.434 412.251 805.056 414.311C803.693 416.371 802.031 417.933 800.071 418.999C798.125 420.064 795.923 420.597 793.466 420.597C791.022 420.597 788.842 420.114 786.924 419.148C785.021 418.168 783.458 416.811 782.237 415.078C781.029 413.331 780.255 411.307 779.914 409.006H785.113C785.582 411.009 786.512 412.663 787.904 413.97C789.311 415.263 791.164 415.909 793.466 415.909C796.832 415.909 799.488 414.439 801.434 411.499C803.395 408.558 804.375 404.403 804.375 399.034H804.034C803.238 400.227 802.294 401.257 801.2 402.124C800.106 402.99 798.892 403.658 797.556 404.126C796.221 404.595 794.801 404.83 793.295 404.83C790.795 404.83 788.501 404.212 786.413 402.976C784.339 401.726 782.677 400.014 781.427 397.841C780.191 395.653 779.574 393.153 779.574 390.341C779.574 387.67 780.17 385.227 781.363 383.011C782.571 380.781 784.261 379.006 786.434 377.685C788.622 376.364 791.193 375.724 794.147 375.767ZM794.147 380.455C792.358 380.455 790.745 380.902 789.311 381.797C787.89 382.678 786.761 383.871 785.923 385.376C785.099 386.868 784.687 388.523 784.687 390.341C784.687 392.159 785.085 393.814 785.88 395.305C786.69 396.783 787.791 397.962 789.183 398.842C790.589 399.709 792.187 400.142 793.977 400.142C795.326 400.142 796.583 399.879 797.748 399.354C798.913 398.814 799.929 398.082 800.795 397.159C801.676 396.222 802.365 395.163 802.862 393.984C803.359 392.791 803.608 391.548 803.608 390.256C803.608 388.551 803.196 386.953 802.372 385.462C801.562 383.97 800.44 382.763 799.005 381.839C797.585 380.916 795.966 380.455 794.147 380.455ZM823.759 414.034L823.418 416.335C823.176 417.955 822.807 419.688 822.31 421.534C821.827 423.381 821.322 425.121 820.797 426.754C820.271 428.388 819.838 429.688 819.497 430.653H815.662C815.847 429.744 816.088 428.544 816.386 427.053C816.685 425.561 816.983 423.892 817.281 422.045C817.594 420.213 817.849 418.338 818.048 416.42L818.304 414.034H823.759ZM865.206 376.364V420H859.922V381.903H859.666L849.012 388.977V383.608L859.922 376.364H865.206ZM892.5 420.597C889.687 420.597 887.18 420.114 884.978 419.148C882.791 418.182 881.051 416.839 879.758 415.121C878.48 413.388 877.784 411.378 877.67 409.091H883.039C883.153 410.497 883.636 411.712 884.488 412.734C885.341 413.743 886.456 414.524 887.833 415.078C889.211 415.632 890.738 415.909 892.414 415.909C894.289 415.909 895.951 415.582 897.4 414.929C898.849 414.276 899.985 413.366 900.809 412.202C901.633 411.037 902.045 409.688 902.045 408.153C902.045 406.548 901.647 405.135 900.852 403.913C900.056 402.678 898.892 401.712 897.358 401.016C895.824 400.32 893.949 399.972 891.733 399.972H888.238V395.284H891.733C893.466 395.284 894.985 394.972 896.292 394.347C897.613 393.722 898.643 392.841 899.382 391.705C900.135 390.568 900.511 389.233 900.511 387.699C900.511 386.222 900.184 384.936 899.531 383.842C898.877 382.749 897.954 381.896 896.761 381.286C895.582 380.675 894.19 380.369 892.585 380.369C891.079 380.369 889.659 380.646 888.324 381.2C887.002 381.74 885.923 382.528 885.085 383.565C884.247 384.588 883.792 385.824 883.721 387.273H878.608C878.693 384.986 879.382 382.983 880.674 381.264C881.967 379.531 883.657 378.182 885.745 377.216C887.848 376.25 890.156 375.767 892.67 375.767C895.369 375.767 897.684 376.314 899.616 377.408C901.548 378.487 903.032 379.915 904.069 381.69C905.106 383.466 905.625 385.384 905.625 387.443C905.625 389.901 904.978 391.996 903.686 393.729C902.407 395.462 900.667 396.662 898.466 397.33V397.67C901.221 398.125 903.373 399.297 904.922 401.186C906.47 403.061 907.244 405.384 907.244 408.153C907.244 410.526 906.598 412.656 905.305 414.545C904.027 416.42 902.279 417.898 900.064 418.977C897.848 420.057 895.326 420.597 892.5 420.597ZM926.782 398.182C926.782 403.551 926.079 408.494 924.673 413.011C923.281 417.514 921.285 421.662 918.686 425.455H914.254C915.277 424.048 916.228 422.315 917.109 420.256C918.004 418.21 918.785 415.966 919.453 413.523C920.12 411.065 920.639 408.53 921.008 405.916C921.392 403.288 921.583 400.71 921.583 398.182C921.583 394.801 921.257 391.371 920.603 387.891C919.95 384.411 919.069 381.179 917.961 378.196C916.853 375.213 915.618 372.784 914.254 370.909H918.686C921.285 374.702 923.281 378.857 924.673 383.374C926.079 387.876 926.782 392.812 926.782 398.182Z" fill="#FA8F00"/>
<path d="M404.006 377.597C402.216 377.568 400.426 377.227 398.636 376.574C396.847 375.92 395.213 374.82 393.736 373.271C392.259 371.709 391.072 369.599 390.178 366.943C389.283 364.273 388.835 360.92 388.835 356.886C388.835 353.023 389.197 349.599 389.922 346.616C390.646 343.619 391.697 341.098 393.075 339.053C394.453 336.993 396.115 335.43 398.061 334.365C400.021 333.3 402.23 332.767 404.688 332.767C407.131 332.767 409.304 333.257 411.207 334.237C413.125 335.203 414.688 336.553 415.895 338.286C417.102 340.018 417.884 342.014 418.239 344.273H413.04C412.557 342.312 411.619 340.686 410.227 339.393C408.835 338.101 406.989 337.455 404.688 337.455C401.307 337.455 398.643 338.925 396.697 341.865C394.766 344.805 393.793 348.932 393.778 354.244H394.119C394.915 353.037 395.859 352.007 396.953 351.155C398.061 350.288 399.283 349.621 400.618 349.152C401.953 348.683 403.366 348.449 404.858 348.449C407.358 348.449 409.645 349.074 411.719 350.324C413.793 351.56 415.455 353.271 416.705 355.459C417.955 357.632 418.58 360.125 418.58 362.938C418.58 365.636 417.976 368.108 416.768 370.352C415.561 372.582 413.864 374.358 411.676 375.679C409.503 376.986 406.946 377.625 404.006 377.597ZM404.006 372.909C405.795 372.909 407.401 372.462 408.821 371.567C410.256 370.672 411.385 369.472 412.209 367.966C413.047 366.46 413.466 364.784 413.466 362.938C413.466 361.134 413.061 359.493 412.251 358.016C411.456 356.524 410.355 355.338 408.949 354.457C407.557 353.577 405.966 353.136 404.176 353.136C402.827 353.136 401.57 353.406 400.405 353.946C399.24 354.472 398.217 355.196 397.337 356.119C396.47 357.043 395.788 358.101 395.291 359.294C394.794 360.473 394.545 361.716 394.545 363.023C394.545 364.756 394.95 366.375 395.76 367.881C396.584 369.386 397.706 370.601 399.126 371.524C400.561 372.447 402.188 372.909 404.006 372.909Z" fill="#737370"/>
<path d="M268.494 338.597C265.568 338.597 262.983 338.078 260.739 337.041C258.509 335.99 256.768 334.548 255.518 332.716C254.268 330.869 253.651 328.767 253.665 326.409C253.651 324.562 254.013 322.858 254.751 321.295C255.49 319.719 256.499 318.405 257.777 317.354C259.07 316.288 260.511 315.614 262.102 315.33V315.074C260.014 314.534 258.352 313.362 257.116 311.558C255.881 309.74 255.27 307.673 255.284 305.358C255.27 303.142 255.831 301.161 256.967 299.413C258.104 297.666 259.666 296.288 261.655 295.28C263.658 294.271 265.938 293.767 268.494 293.767C271.023 293.767 273.281 294.271 275.27 295.28C277.259 296.288 278.821 297.666 279.957 299.413C281.108 301.161 281.69 303.142 281.705 305.358C281.69 307.673 281.058 309.74 279.808 311.558C278.572 313.362 276.932 314.534 274.886 315.074V315.33C276.463 315.614 277.884 316.288 279.148 317.354C280.412 318.405 281.42 319.719 282.173 321.295C282.926 322.858 283.31 324.562 283.324 326.409C283.31 328.767 282.67 330.869 281.406 332.716C280.156 334.548 278.416 335.99 276.186 337.041C273.97 338.078 271.406 338.597 268.494 338.597ZM268.494 333.909C270.469 333.909 272.173 333.589 273.608 332.95C275.043 332.311 276.151 331.409 276.932 330.244C277.713 329.08 278.111 327.716 278.125 326.153C278.111 324.506 277.685 323.05 276.847 321.786C276.009 320.521 274.865 319.527 273.416 318.803C271.982 318.078 270.341 317.716 268.494 317.716C266.634 317.716 264.972 318.078 263.509 318.803C262.06 319.527 260.916 320.521 260.078 321.786C259.254 323.05 258.849 324.506 258.864 326.153C258.849 327.716 259.226 329.08 259.993 330.244C260.774 331.409 261.889 332.311 263.338 332.95C264.787 333.589 266.506 333.909 268.494 333.909ZM268.494 313.199C270.057 313.199 271.442 312.886 272.649 312.261C273.871 311.636 274.83 310.763 275.526 309.641C276.222 308.518 276.577 307.205 276.591 305.699C276.577 304.222 276.229 302.936 275.547 301.842C274.865 300.734 273.92 299.882 272.713 299.286C271.506 298.675 270.099 298.369 268.494 298.369C266.861 298.369 265.433 298.675 264.212 299.286C262.99 299.882 262.045 300.734 261.378 301.842C260.71 302.936 260.384 304.222 260.398 305.699C260.384 307.205 260.717 308.518 261.399 309.641C262.095 310.763 263.054 311.636 264.276 312.261C265.497 312.886 266.903 313.199 268.494 313.199Z" fill="#737370"/>
</svg>
